<svg width="300" height="78" viewBox="0 0 300 78" fill="none" xmlns="http://www.w3.org/2000/svg">
<g clip-path="url(#clip0_68_115)">
<path d="M37.0278 24.0278C37.2223 23.9445 37.3889 23.8612 37.5556 23.7778L37.0278 24.0278Z" fill="#A37D64"/>
<path d="M28.389 37.1111C28.3334 37.2222 28.3056 37.3056 28.2779 37.4167C28.2223 37.5278 28.1945 37.6389 28.1667 37.75C27.4167 39.8611 27.389 41.6389 27.8612 43.1111C29.5279 48.1667 37.1667 50.0556 43.0556 50.7222C43.1667 50.75 43.3056 50.75 43.4167 50.7778C47.2223 51.1944 50.2223 51.1389 50.2223 51.1389C48.6112 51.8889 47.0834 52.5 45.639 53C45.6112 53 45.5834 53.0278 45.5834 53.0278C42.0001 54.2778 38.9723 54.8611 36.389 54.8611C35.9445 54.8889 35.4723 54.9167 35.0279 54.9444C29.5834 55.1111 24.3612 54.1944 19.7779 51.0556C14.1945 47.25 12.5556 41.2778 15.4445 35.1945C16.6667 32.6111 18.3612 30.4444 20.3612 28.5278L20.389 28.5C20.4167 28.5 20.4167 28.4722 20.4445 28.4445C20.4723 28.4167 20.5001 28.3889 20.5279 28.3611C20.5556 28.3333 20.5834 28.3333 20.5834 28.3056C20.9167 28.0278 21.2501 27.75 21.639 27.4167C21.8056 27.2778 21.9445 27.1667 22.0834 27.0278C22.2223 26.9167 22.3334 26.8056 22.4445 26.7222C22.6667 26.5278 22.8334 26.3889 22.9167 26.3333C22.9445 26.3056 22.9723 26.3056 22.9723 26.2778L23.0001 26.25C23.1945 26.0833 23.4167 25.8889 23.639 25.7222C23.7779 25.6111 23.889 25.5 23.9723 25.4444C24.0001 25.4167 24.0279 25.3889 24.0279 25.3889C24.0279 25.3889 24.0279 25.3889 24.0556 25.3611C24.1112 25.3056 24.139 25.2778 24.1945 25.25C24.2501 25.1945 24.2779 25.1944 24.3056 25.1667C24.3334 25.1667 24.3334 25.1389 24.3334 25.1389L24.3612 25.1111C29.8612 20.5 37.4167 16.1945 45.1112 12.4722H45.139C49.7223 10.25 54.3334 8.25 58.5834 6.52778C67.2501 3 74.5279 0.722224 76.6667 0.0277795C76.4167 0.0277795 75.9723 0.0277795 75.7501 0.0277795C62.9723 1.69501e-06 50.1945 0 37.4445 0C36.9445 0 33.9167 1.69501e-06 33.7501 0.0277795C29.2223 0.555557 25.1112 2.11112 21.1667 4.1389C9.52786 10.0278 2.9723 19.6111 0.555637 32.25C0.38897 33.0556 0.166748 33.9722 0.166748 34.6945V77.8611C4.75008 77.8611 8.16675 78.1111 11.8334 77.6945C25.3056 76.1389 35.6112 70.4167 39.3612 68.0556C39.4167 68.0278 39.4723 67.9722 39.5279 67.9445C39.5834 67.9167 39.6112 67.8889 39.6667 67.8611C39.7779 67.7778 39.889 67.7222 40.0001 67.6389C40.2223 67.4722 40.4723 67.3333 40.6945 67.1667C40.7501 67.1389 40.8056 67.0833 40.8334 67.0833L40.8612 67.0556C40.889 67.0556 40.889 67.0278 40.889 67.0278C52.2223 58.2222 56.1112 52.3333 56.139 48.3889C56.1945 44.1667 51.8334 42.1944 47.5556 41.25C47.389 41.2222 47.2501 41.1945 47.0834 41.1667C43.139 40.3611 39.4167 40.4445 39.4167 40.4445C39.639 40.25 49.6112 38.8333 54.3612 39.5278C58.4445 40.1111 62.1112 41.6389 65.1667 44.25C65.6667 44.6667 66.139 45.1111 66.6112 45.6111C69.1112 48.1945 69.6667 51.25 68.1667 54.5833C67.5279 56.0278 66.639 57.3611 65.6112 58.5833C65.0279 59.2778 64.4445 59.9444 63.8334 60.5556L63.8056 60.5833C63.7779 60.6111 63.7501 60.6389 63.7223 60.6667C60.2223 64.2778 56.0834 67.0556 51.5279 69.3333C45.8612 72.1389 39.9723 74.0556 33.9167 75.3889H33.889C31.9445 75.8611 30.139 76.25 28.5279 76.5556C24.5556 77.3333 20.9445 77.9445 20.9445 77.9445H45.5556C48.2779 77.7222 50.8056 77.0833 53.1112 76.5278C55.5279 75.9722 57.7223 75.2222 59.7223 74.3611C59.8056 74.3333 59.9167 74.2778 60.0279 74.25C74.5279 67.8056 77.9723 54.5 78.7779 48.5C79.0279 46.5833 79.0556 45.3889 79.0556 45.3611V1.19445C72.7223 2.00001 34.3334 24.7222 28.389 37.1111ZM51.3612 34.1667C48.3056 34.1667 45.8056 31.6667 45.8056 28.6111C45.8056 25.5278 48.3056 23.0556 51.3612 23.0556C54.4445 23.0556 56.9167 25.5556 56.9167 28.6111C56.9167 31.6944 54.4167 34.1667 51.3612 34.1667Z" fill="#F17C21"/>
<path d="M107.306 27.2778C107.306 28.5834 107.028 29.8334 106.445 31.0278C105.889 32.2222 105.083 33.25 104.056 34.1389C103.028 35.0556 101.833 35.7778 100.417 36.3056C99.0279 36.8334 97.4724 37.1111 95.7779 37.1111C94.2501 37.1111 92.889 37.0278 91.6946 36.8611C90.4724 36.6945 89.3335 36.4167 88.2779 36.0278C87.2224 35.6389 86.1946 35.1667 85.2224 34.5556C84.2501 33.9445 83.2224 33.2222 82.1946 32.3889L87.0001 27.5278C88.389 28.6945 89.7779 29.5278 91.1112 30C92.4446 30.4722 93.9168 30.7222 95.4724 30.7222C96.1113 30.7222 96.7224 30.6389 97.2779 30.4445C97.8335 30.25 98.3335 30 98.7779 29.6667C99.1946 29.3334 99.5279 28.9722 99.7779 28.5278C100.028 28.0834 100.139 27.6111 100.139 27.0833C100.139 26.5278 100.028 26.0278 99.8335 25.5833C99.639 25.1389 99.2779 24.7222 98.7501 24.3056C98.2224 23.8889 97.5001 23.4722 96.5557 23.0556C95.6112 22.6389 94.4168 22.1667 92.9724 21.6389C91.6946 21.1667 90.4446 20.6389 89.2779 20.0278C88.0835 19.4167 87.0557 18.6945 86.1668 17.8611C85.2779 17.0278 84.5557 16.0278 84.0279 14.8889C83.5001 13.75 83.2224 12.4167 83.2224 10.8611C83.2224 9.36113 83.5279 8.00002 84.1112 6.75002C84.7224 5.50002 85.5279 4.41668 86.5557 3.52779C87.5835 2.63891 88.8057 1.94446 90.1946 1.44446C91.5835 0.944461 93.0835 0.694458 94.6668 0.694458C97.3612 0.694458 99.6112 1.05557 101.445 1.75002C103.278 2.44446 104.917 3.47224 106.333 4.80557L101.611 9.58335C100.722 8.75001 99.7501 8.08335 98.6668 7.6389C97.5835 7.19446 96.3057 6.97224 94.8612 6.97224C94.1946 6.97224 93.5557 7.08335 93.0001 7.27779C92.4446 7.47224 91.9446 7.75002 91.5279 8.08335C91.1112 8.41668 90.7779 8.80558 90.5557 9.2778C90.3057 9.72224 90.1946 10.1945 90.1946 10.6945C90.1946 11.25 90.3057 11.75 90.5557 12.1945C90.7779 12.6389 91.1946 13.0833 91.7501 13.5C92.3057 13.9167 93.0557 14.3334 93.9724 14.7778C94.889 15.1945 96.0279 15.6667 97.4168 16.1667C99.1668 16.7778 100.667 17.4445 101.917 18.1945C103.167 18.9167 104.195 19.7222 104.972 20.6111C105.75 21.5 106.333 22.4722 106.722 23.5556C107.111 24.6667 107.306 25.8889 107.306 27.2778Z" fill="white"/>
<path d="M134.111 36.4445H127.806V21.3056C127.806 20.3889 127.667 19.6111 127.389 18.9167C127.111 18.2222 126.75 17.6667 126.306 17.2222C125.861 16.7778 125.334 16.4445 124.722 16.2222C124.111 16 123.5 15.8889 122.861 15.8889C121.889 15.8889 120.972 16.0278 120.084 16.3333C119.195 16.6389 118.361 17.0278 117.528 17.5556V36.4445H111.222V0.194458H117.528L117.584 12.6111C118.528 11.8889 119.611 11.3333 120.806 11C122.028 10.6389 123.222 10.4722 124.334 10.4722C125.639 10.4722 126.889 10.6945 128.056 11.1111C129.222 11.5278 130.25 12.1667 131.167 13.0278C132.084 13.8889 132.778 14.9722 133.306 16.25C133.834 17.5556 134.084 19.0833 134.084 20.8611L134.111 36.4445Z" fill="white"/>
<path d="M159.445 36.4444H153.139V35.0833C152.028 35.8333 150.861 36.3611 149.611 36.6666C148.361 36.9722 147.083 37.1111 145.778 37.1111C144.556 37.1111 143.445 36.9166 142.445 36.5555C141.445 36.1944 140.583 35.6666 139.861 34.9722C139.139 34.2777 138.556 33.4722 138.167 32.5277C137.778 31.5833 137.583 30.5555 137.583 29.4166C137.583 27.9722 137.889 26.75 138.528 25.6666C139.167 24.6111 140 23.7222 141.083 22.9999C142.167 22.2777 143.417 21.7499 144.861 21.3888C146.306 21.0277 147.861 20.8611 149.528 20.8611H153.167C153.167 19.3611 152.695 18.1944 151.722 17.3333C150.75 16.4444 149.361 16.0277 147.556 16.0277C146.667 16.0277 145.778 16.1944 144.861 16.4999C143.917 16.8333 143 17.4166 142.056 18.2499L138.333 14.4999C139.667 13.2222 141.222 12.2222 143 11.5277C144.778 10.8333 146.584 10.4722 148.445 10.4722C150.195 10.4722 151.75 10.7499 153.111 11.3055C154.472 11.8611 155.583 12.5833 156.417 13.4444C157.528 14.5555 158.306 15.8055 158.75 17.1666C159.195 18.5277 159.417 20.2777 159.417 22.4166V36.4444H159.445ZM153.139 30.1666V25.4722H150.25C149.361 25.4722 148.556 25.5277 147.778 25.6388C147 25.7499 146.334 25.9444 145.75 26.2222C145.195 26.5 144.722 26.8611 144.389 27.3055C144.056 27.7499 143.889 28.2777 143.889 28.8888C143.889 29.7777 144.222 30.4722 144.917 31.0277C145.611 31.5833 146.472 31.8611 147.556 31.8611C148.5 31.8611 149.417 31.7222 150.334 31.4166C151.278 31.1388 152.222 30.7222 153.139 30.1666Z" fill="white"/>
<path d="M164.306 36.4444V0.25H170.75V36.4444H164.306Z" fill="white"/>
<path d="M181.306 8.88885C178.889 8.88885 176.917 6.91664 176.917 4.49997C176.917 2.0833 178.889 0.111084 181.306 0.111084C183.722 0.111084 185.695 2.0833 185.695 4.49997C185.695 6.91664 183.722 8.88885 181.306 8.88885Z" fill="white"/>
<path d="M184.5 11.1389H178.111V63.9722H184.5V11.1389Z" fill="#F17C21"/>
<path d="M213.5 16.1666H210.833C211.5 17.4722 211.833 18.8611 211.833 20.3611C211.833 21.4999 211.611 22.6111 211.194 23.6666C210.778 24.7222 210.167 25.6944 209.389 26.5833C208.611 27.4722 207.639 28.1944 206.528 28.8055C205.417 29.4166 204.139 29.8333 202.75 30.0277C201.778 30.1666 201.056 30.3888 200.583 30.6944C200.111 30.9999 199.861 31.3055 199.861 31.6111C199.861 31.9166 200.111 32.1944 200.583 32.4722C201.056 32.7222 201.778 32.9166 202.75 32.9999C206 33.3055 208.556 34.1111 210.333 35.4444C212.111 36.7777 213.028 38.5555 213.028 40.7777C213.028 41.9166 212.75 42.9722 212.194 43.9166C211.639 44.8888 210.861 45.6944 209.833 46.4166C208.806 47.1388 207.556 47.6666 206.111 48.0277C204.667 48.4166 203.028 48.5833 201.222 48.5833C199.389 48.5833 197.75 48.3888 196.278 48.0277C194.806 47.6388 193.556 47.1111 192.5 46.4166C191.444 45.7222 190.667 44.9166 190.111 43.9444C189.556 42.9722 189.278 41.9166 189.278 40.7499C189.278 38.9999 189.778 37.5277 190.778 36.3611C191.778 35.1666 193.417 34.3055 195.667 33.7222C194.972 33.4722 194.472 33.1111 194.167 32.6388C193.861 32.1944 193.722 31.7222 193.75 31.2499C193.778 30.7777 193.972 30.3333 194.333 29.9166C194.694 29.4999 195.222 29.1666 195.889 28.9444C195.139 28.5833 194.389 28.1388 193.694 27.5833C193 27.0277 192.389 26.3888 191.806 25.6666C191.25 24.9444 190.806 24.1111 190.472 23.2222C190.139 22.3055 190 21.3611 190 20.3333C190 18.9722 190.306 17.6944 190.889 16.4999C191.472 15.3055 192.25 14.2499 193.25 13.3611C194.25 12.4722 195.389 11.7777 196.722 11.2499C198.056 10.7222 199.417 10.4722 200.889 10.4722C202.333 10.4722 203.639 10.6944 204.861 11.1388H213.528V16.1666H213.5ZM206.722 40.7777C206.722 39.7499 206.222 38.9999 205.167 38.5555C204.139 38.0833 202.806 37.8611 201.194 37.8611C199.444 37.8611 198.083 38.1111 197.083 38.6111C196.083 39.1111 195.583 39.8333 195.583 40.8055C195.583 41.8055 196.111 42.5277 197.139 43.0277C198.194 43.5277 199.528 43.7777 201.194 43.7777C202.889 43.7777 204.222 43.5277 205.222 43.0555C206.222 42.5833 206.722 41.8055 206.722 40.7777ZM205.528 20.3611C205.528 19.7222 205.417 19.1111 205.167 18.5833C204.917 18.0277 204.583 17.5277 204.167 17.1111C203.75 16.6944 203.25 16.3611 202.694 16.1111C202.139 15.8611 201.528 15.7499 200.889 15.7499C200.25 15.7499 199.667 15.8611 199.111 16.1111C198.556 16.3611 198.083 16.6944 197.667 17.1111C197.25 17.5277 196.917 18.0277 196.667 18.5833C196.417 19.1388 196.306 19.7499 196.306 20.3611C196.306 20.9999 196.417 21.6111 196.667 22.1666C196.917 22.7222 197.25 23.2222 197.667 23.6666C198.083 24.0833 198.583 24.4166 199.111 24.6666C199.667 24.9166 200.25 25.0277 200.889 25.0277C201.528 25.0277 202.111 24.9166 202.694 24.6666C203.25 24.4166 203.75 24.0833 204.167 23.6666C204.583 23.2499 204.917 22.7499 205.167 22.1666C205.417 21.6111 205.528 20.9999 205.528 20.3611Z" fill="white"/>
<path d="M234.722 13.8055L231.361 19.1388C230.75 18.4722 230.056 17.8888 229.333 17.3611C228.583 16.8611 227.833 16.5833 227.083 16.5833C226.667 16.5833 226.222 16.6666 225.75 16.8611C225.278 17.0555 224.806 17.3611 224.389 17.8055C223.972 18.2499 223.611 18.8333 223.306 19.5277C223 20.2499 222.861 21.1388 222.861 22.1666V36.4444H216.556V11.1666H222.861V13.8611C223.611 12.7777 224.472 11.9444 225.389 11.3611C226.306 10.7777 227.333 10.4722 228.472 10.4722C229.583 10.4722 230.667 10.7777 231.722 11.3611C232.778 11.9999 233.778 12.8055 234.722 13.8055Z" fill="white"/>
<path d="M257.472 36.4444H251.167V35.0833C250.056 35.8333 248.889 36.3611 247.639 36.6667C246.389 36.9722 245.111 37.1111 243.806 37.1111C242.584 37.1111 241.472 36.9167 240.472 36.5556C239.472 36.1945 238.611 35.6667 237.889 34.9722C237.167 34.2778 236.584 33.4722 236.195 32.5278C235.806 31.5833 235.611 30.5556 235.611 29.4167C235.611 27.9722 235.917 26.75 236.556 25.6667C237.195 24.6111 238.028 23.7222 239.111 23C240.195 22.2778 241.445 21.75 242.889 21.3889C244.334 21.0278 245.889 20.8611 247.556 20.8611H251.195C251.195 19.3611 250.722 18.1944 249.75 17.3333C248.778 16.4444 247.389 16.0278 245.584 16.0278C244.695 16.0278 243.806 16.1944 242.889 16.5C241.945 16.8333 241.028 17.4167 240.084 18.25L236.389 14.5278C237.722 13.25 239.278 12.25 241.056 11.5556C242.834 10.8611 244.639 10.5 246.5 10.5C248.25 10.5 249.806 10.7778 251.167 11.3333C252.528 11.8889 253.639 12.6111 254.472 13.4722C255.584 14.5833 256.361 15.8333 256.806 17.1944C257.25 18.5556 257.472 20.3056 257.472 22.4444V36.4444ZM251.167 30.1667V25.4722H248.278C247.389 25.4722 246.584 25.5278 245.806 25.6389C245.028 25.75 244.361 25.9444 243.778 26.2222C243.222 26.5 242.75 26.8611 242.417 27.3056C242.084 27.75 241.917 28.2778 241.917 28.8889C241.917 29.7778 242.25 30.4722 242.945 31.0278C243.639 31.5833 244.5 31.8611 245.584 31.8611C246.528 31.8611 247.445 31.7222 248.361 31.4167C249.306 31.1389 250.222 30.7222 251.167 30.1667Z" fill="white"/>
<path d="M299.75 36.4445H293.444V21.3612C293.444 19.5834 293 18.2223 292.139 17.3056C291.278 16.3889 290.222 15.9167 288.972 15.9167C288 15.9167 287.083 16.0834 286.222 16.3889C285.361 16.6945 284.528 17.1945 283.694 17.8889C283.944 18.9167 284.083 20.0556 284.083 21.3612V36.4445H277.778V21.3612C277.778 19.5834 277.333 18.2223 276.472 17.3056C275.611 16.3889 274.556 15.9167 273.361 15.9167C272.389 15.9167 271.556 16.0834 270.833 16.4167C270.111 16.75 269.333 17.2778 268.556 18.0278V36.4445H262.25V11.1667H268.611V13.0556C269.389 12.3056 270.333 11.6945 271.389 11.2223C272.444 10.7501 273.556 10.5278 274.639 10.5278C275.861 10.5278 277.111 10.8056 278.333 11.3612C279.583 11.9167 280.667 12.7223 281.583 13.7778C282.889 12.6112 284.222 11.7778 285.556 11.2778C286.889 10.7778 288.361 10.5278 289.972 10.5278C291.278 10.5278 292.528 10.7223 293.722 11.1112C294.917 11.5 295.944 12.1389 296.806 13.0001C297.694 13.8612 298.389 14.9445 298.917 16.2778C299.444 17.6112 299.694 19.1945 299.694 21.0556L299.75 36.4445Z" fill="white"/>
<path d="M200.945 63.6111H198.222V57.1111C198.222 56.7222 198.167 56.3889 198.028 56.0833C197.917 55.7777 197.75 55.5555 197.556 55.3333C197.361 55.1388 197.111 55 196.861 54.8889C196.611 54.8055 196.333 54.75 196.056 54.75C195.639 54.75 195.222 54.8333 194.833 54.9722C194.445 55.1111 194.056 55.3333 193.75 55.6666V63.6111H191.028V52.7222H193.75L193.778 53.5277C193.944 53.3611 194.139 53.2222 194.389 53.0833C194.639 52.9444 194.889 52.8333 195.139 52.7222C195.389 52.6388 195.667 52.5555 195.917 52.5C196.194 52.4444 196.444 52.4166 196.694 52.4166C197.25 52.4166 197.778 52.5 198.278 52.6666C198.778 52.8333 199.25 53.1111 199.639 53.4722C200.028 53.8333 200.333 54.3055 200.583 54.8889C200.833 55.4722 200.945 56.1388 200.945 56.9444V63.6111Z" fill="#F17C21"/>
<path d="M214.472 50.4444C214.222 50.3333 213.972 50.2777 213.778 50.25C213.584 50.2222 213.361 50.1944 213.111 50.1944C212.584 50.1944 212.222 50.3055 212 50.5555C211.778 50.8055 211.667 51.2222 211.667 51.8611V52.7222H213.389V55.1111H211.667V63.6111H208.945V55.1111H207.611V52.7222H208.945V51.8888C208.945 50.5277 209.195 49.4722 209.722 48.7499C210.25 48.0277 211.139 47.6666 212.417 47.6666C213.139 47.6666 213.834 47.7499 214.472 47.9166V50.4444Z" fill="#F17C21"/>
<path d="M233.389 58.1666C233.389 58.9722 233.222 59.75 232.944 60.4444C232.639 61.1389 232.222 61.75 231.694 62.25C231.167 62.75 230.556 63.1666 229.833 63.4444C229.139 63.75 228.361 63.8888 227.556 63.8888C226.75 63.8888 226 63.75 225.306 63.4444C224.611 63.1389 223.972 62.75 223.472 62.2222C222.944 61.6944 222.528 61.1111 222.222 60.3889C221.917 59.6944 221.778 58.9444 221.778 58.1388C221.778 57.3611 221.944 56.6111 222.25 55.9166C222.556 55.2222 222.972 54.6111 223.5 54.0833C224.028 53.5555 224.639 53.1666 225.333 52.8611C226.028 52.5555 226.778 52.4166 227.583 52.4166C228.389 52.4166 229.139 52.5555 229.861 52.8611C230.556 53.1666 231.194 53.5555 231.722 54.0555C232.25 54.5555 232.667 55.1666 232.972 55.8888C233.222 56.5833 233.389 57.3611 233.389 58.1666ZM230.667 58.1666C230.667 57.6944 230.583 57.2777 230.417 56.8611C230.25 56.4722 230.028 56.1111 229.75 55.8055C229.472 55.5 229.139 55.2777 228.75 55.1111C228.389 54.9444 227.972 54.8611 227.556 54.8611C227.139 54.8611 226.722 54.9444 226.361 55.1111C225.972 55.2777 225.667 55.5 225.361 55.8055C225.083 56.1111 224.861 56.4722 224.694 56.8611C224.528 57.25 224.444 57.6944 224.444 58.1666C224.444 58.6389 224.528 59.0555 224.694 59.4722C224.861 59.8611 225.083 60.2222 225.361 60.5277C225.639 60.8333 225.972 61.0555 226.361 61.2222C226.722 61.3889 227.139 61.4722 227.556 61.4722C227.972 61.4722 228.389 61.3889 228.75 61.2222C229.111 61.0555 229.444 60.8055 229.75 60.5277C230.028 60.2222 230.25 59.8611 230.417 59.4722C230.583 59.0555 230.667 58.6111 230.667 58.1666Z" fill="#F17C21"/>
<path d="M247.333 63.3611C247.056 63.5278 246.722 63.6667 246.361 63.75C246 63.8333 245.639 63.8889 245.278 63.8889C244.639 63.8889 244.083 63.8056 243.667 63.6667C243.222 63.5 242.889 63.2778 242.611 62.9445C242.361 62.6111 242.139 62.1945 242.028 61.6945C241.917 61.1945 241.833 60.6111 241.833 59.9167V55.1389H240.389V53.9167C241.278 53.5556 241.972 53 242.528 52.3055C243.083 51.5833 243.444 50.6667 243.639 49.5H244.528V52.6944H247.278V55.1389H244.528V60.0833C244.528 60.3611 244.556 60.5833 244.639 60.75C244.722 60.9167 244.806 61.0556 244.917 61.1667C245.028 61.2778 245.167 61.3333 245.306 61.3611C245.444 61.3889 245.611 61.4167 245.778 61.4167C246 61.4167 246.25 61.3889 246.556 61.3056C246.861 61.2222 247.111 61.1111 247.333 60.9167V63.3611Z" fill="#F17C21"/>
<path d="M266.195 58.1389C266.195 58.3056 266.195 58.5 266.167 58.6944C266.139 58.8889 266.111 59.0833 266.111 59.2778H257.389C257.5 59.5833 257.639 59.8889 257.806 60.1667C258 60.4445 258.222 60.6944 258.472 60.9167C258.722 61.1111 259.028 61.2778 259.361 61.4167C259.695 61.5278 260.056 61.6111 260.472 61.6111C260.972 61.6111 261.445 61.5278 261.945 61.3611C262.445 61.1945 262.833 60.9722 263.167 60.6667L264.889 62.3889C264.139 62.9445 263.389 63.3611 262.667 63.5833C261.945 63.8056 261.167 63.9444 260.361 63.9444C259.556 63.9444 258.778 63.7778 258.056 63.5C257.361 63.1945 256.722 62.8056 256.222 62.2778C255.722 61.75 255.278 61.1667 255 60.4445C254.695 59.75 254.556 59 254.556 58.2222C254.556 57.4167 254.722 56.6945 255 56C255.306 55.3056 255.722 54.6944 256.25 54.1667C256.778 53.6389 257.389 53.25 258.083 52.9445C258.778 52.6389 259.556 52.5 260.333 52.5C261.111 52.5 261.833 52.6389 262.528 52.9167C263.222 53.1944 263.861 53.5833 264.389 54.1111C264.917 54.6111 265.361 55.2222 265.667 55.9167C266.028 56.5278 266.195 57.3056 266.195 58.1389ZM263.333 57.0833C263.111 56.3889 262.75 55.8333 262.195 55.4167C261.639 55 261.028 54.7778 260.333 54.7778C259.667 54.7778 259.028 55 258.5 55.4167C257.972 55.8333 257.583 56.3889 257.361 57.0833H263.333Z" fill="#F17C21"/>
<path d="M283.694 61.9722C283.139 62.6111 282.472 63.0833 281.694 63.4166C280.917 63.7499 280.083 63.9166 279.25 63.9166C278.472 63.9166 277.722 63.7777 277 63.4722C276.306 63.1666 275.694 62.7777 275.167 62.2777C274.639 61.7777 274.25 61.1666 273.944 60.4722C273.639 59.7777 273.5 58.9999 273.5 58.1944C273.5 57.3888 273.667 56.6388 273.944 55.9444C274.25 55.2499 274.639 54.6388 275.167 54.1388C275.694 53.6388 276.278 53.2222 277 52.9166C277.694 52.6111 278.472 52.4722 279.25 52.4722C280.083 52.4722 280.861 52.6388 281.611 52.9166C282.361 53.2222 283 53.6666 283.556 54.3055L281.722 56.1666C281.444 55.8055 281.111 55.4999 280.722 55.2499C280.333 54.9999 279.833 54.8888 279.278 54.8888C278.861 54.8888 278.472 54.9722 278.111 55.1388C277.75 55.3055 277.417 55.5555 277.139 55.8333C276.861 56.1388 276.639 56.4722 276.472 56.8888C276.306 57.2777 276.222 57.7222 276.222 58.1666C276.222 58.6111 276.306 59.0555 276.472 59.4444C276.639 59.8333 276.861 60.1944 277.139 60.4999C277.417 60.8055 277.75 61.0277 278.111 61.1944C278.472 61.361 278.889 61.4444 279.306 61.4444C279.833 61.4444 280.333 61.3055 280.778 61.0555C281.222 60.8055 281.556 60.4722 281.833 60.0555L283.694 61.9722Z" fill="#F17C21"/>
<path d="M299.834 63.6111H297.111V57.0833C297.111 56.6944 297.056 56.3611 296.917 56.0556C296.806 55.75 296.639 55.5278 296.445 55.3056C296.25 55.1111 296.028 54.9722 295.778 54.8611C295.528 54.7778 295.25 54.7222 294.972 54.7222C294.556 54.7222 294.167 54.7778 293.778 54.9167C293.389 55.0556 293.028 55.2222 292.695 55.4445V63.5833H289.972V47.9445H292.695L292.722 53.3056C293.111 53 293.584 52.75 294.111 52.6111C294.639 52.4722 295.139 52.3889 295.639 52.3889C296.195 52.3889 296.75 52.4722 297.25 52.6667C297.75 52.8611 298.195 53.1389 298.584 53.5C298.972 53.8611 299.278 54.3333 299.5 54.8889C299.722 55.4445 299.834 56.1111 299.834 56.8611V63.6111Z" fill="#F17C21"/>
<path d="M170.722 41.5278H82.0835V42.7501H170.722V41.5278Z" fill="white"/>
<path d="M299.556 41.6945H215.889V42.7778H299.556V41.6945Z" fill="white"/>
<path d="M82.8611 66.5H86.6389C88.4722 66.5 89.8333 67 90.75 68.0278C91.5833 68.9722 92 70.3055 92 72.0278C92 74 91.4166 75.5 90.25 76.4722C89.2778 77.3055 88 77.7222 86.3889 77.7222H82.8889V66.5H82.8611ZM84.8055 68V76.2222H86.3333C87.5555 76.2222 88.4722 75.8333 89.0555 75.0833C89.6111 74.3889 89.8889 73.3611 89.8889 72.0278C89.8889 69.3333 88.7222 67.9722 86.4166 67.9722L84.8055 68Z" fill="white"/>
<path d="M97.9446 66.5V68.3611H95.9724V66.5H97.9446ZM97.8891 69.8055V77.75H96.0557V69.8055H97.8891Z" fill="white"/>
<path d="M109.25 68.6945L109.139 70.1667C108.722 70.1667 108.417 70.1945 108.222 70.2778C108.056 70.3334 107.889 70.4445 107.722 70.5834C108.167 71.0278 108.361 71.5556 108.361 72.1667C108.361 73.0278 108.028 73.6945 107.361 74.1945C106.806 74.6111 106.083 74.8056 105.222 74.8056C104.861 74.8056 104.5 74.75 104.195 74.6667C103.806 74.8611 103.611 75.0833 103.611 75.3611C103.611 75.5556 103.695 75.6945 103.861 75.75C104.028 75.8334 104.306 75.8889 104.722 75.9167L106.528 76.0556C107.583 76.1667 108.333 76.4167 108.778 76.8056C109.111 77.1111 109.278 77.5556 109.278 78.1389C109.278 78.9167 108.889 79.5 108.111 79.9445C107.389 80.3333 106.445 80.5556 105.278 80.5556C104.083 80.5556 103.139 80.3611 102.5 79.9445C101.972 79.6111 101.695 79.1667 101.695 78.6111C101.695 77.9445 102.195 77.4167 103.167 77.0556C102.417 76.8889 102.056 76.5 102.056 75.9167C102.056 75.3333 102.472 74.7778 103.278 74.2778C102.528 73.8056 102.139 73.0833 102.139 72.1667C102.139 71.3333 102.472 70.6945 103.139 70.2222C103.695 69.8056 104.417 69.6111 105.278 69.6111C105.945 69.6111 106.5 69.7222 106.972 70C107.25 69.5 107.583 69.1389 107.972 68.9445C108.25 68.7778 108.695 68.6945 109.25 68.6945ZM104.25 77.2778C103.528 77.5 103.195 77.8611 103.195 78.3611C103.195 78.7222 103.417 79 103.861 79.1945C104.25 79.3611 104.75 79.4445 105.361 79.4445C106.167 79.4445 106.75 79.3334 107.167 79.0834C107.5 78.8889 107.667 78.6667 107.667 78.3889C107.667 78.0834 107.556 77.8611 107.333 77.75C107.111 77.6389 106.722 77.5278 106.195 77.4722L104.25 77.2778ZM105.222 70.6945C104.778 70.6945 104.417 70.8334 104.139 71.1389C103.889 71.3889 103.778 71.75 103.778 72.1667C103.778 72.6945 103.945 73.1111 104.25 73.3889C104.5 73.6111 104.833 73.7222 105.222 73.7222C105.695 73.7222 106.056 73.5833 106.306 73.2778C106.556 73 106.667 72.6389 106.667 72.1667C106.667 71.6945 106.5 71.3056 106.195 71.0278C105.945 70.8056 105.639 70.6945 105.222 70.6945Z" fill="white"/>
<path d="M114.861 66.5V68.3611H112.889V66.5H114.861ZM114.806 69.8055V77.75H112.972V69.8055H114.806Z" fill="white"/>
<path d="M121.472 67.1945V69.8056H123.25V71.1389H121.472V75.5C121.472 76.2778 121.806 76.6389 122.445 76.6389C122.806 76.6389 123.111 76.6111 123.361 76.5556L123.278 77.8611C122.889 77.9167 122.389 77.9445 121.861 77.9445C121.056 77.9445 120.472 77.75 120.111 77.3611C119.806 77.0278 119.639 76.5 119.639 75.8333V71.1389H118.445V69.8056H119.639V67.6111L121.472 67.1945Z" fill="white"/>
<path d="M126.75 71.8055C127.167 70.3333 128.25 69.6111 130.056 69.6111C132.111 69.6111 133.139 70.5 133.139 72.25V75.4166C133.139 76.1944 133.194 76.9722 133.25 77.7777H131.583C131.528 77.4722 131.5 77.1389 131.444 76.7222C130.889 77.5555 130.056 77.9444 128.944 77.9444C128.167 77.9444 127.528 77.6944 127.083 77.2222C126.694 76.8055 126.5 76.25 126.5 75.5833C126.5 74.1666 127.361 73.2778 129.111 72.9444C129.75 72.8333 130.5 72.75 131.389 72.7222V72.2777C131.389 71.75 131.278 71.3611 131.028 71.1666C130.806 70.9722 130.472 70.8889 130.028 70.8889C129.611 70.8889 129.278 71.0278 129 71.2778C128.75 71.5278 128.583 71.8611 128.5 72.2777L126.75 71.8055ZM131.361 73.8611C130.75 73.8889 130.139 73.9444 129.528 74.0833C128.667 74.2777 128.222 74.75 128.222 75.4444C128.222 76.25 128.639 76.6389 129.5 76.6389C130.278 76.6389 130.889 76.1944 131.361 75.3333V73.8611Z" fill="white"/>
<path d="M139.417 66.3055V77.75H137.583V66.3055H139.417Z" fill="white"/>
<path d="M145.834 66.5V68.3611H143.861V66.5H145.834ZM145.75 69.8055V77.75H143.917V69.8055H145.75Z" fill="white"/>
<path d="M156 71.6666L154.278 72.1666C154.084 71.3055 153.611 70.8889 152.861 70.8889C152.445 70.8889 152.139 70.9722 151.917 71.1666C151.722 71.3333 151.611 71.5 151.611 71.75C151.611 72.0833 151.722 72.3333 151.945 72.5C152.139 72.6666 152.5 72.8055 153.028 72.9444L153.695 73.1111C154.667 73.3611 155.334 73.6944 155.667 74.0833C156 74.4444 156.139 74.9166 156.139 75.5277C156.139 76.3333 155.833 76.9444 155.222 77.3611C154.667 77.7777 153.889 77.9722 152.917 77.9722C151.195 77.9722 150.083 77.3055 149.583 76L151.278 75.4166C151.528 76.3055 152.083 76.75 152.945 76.75C153.917 76.75 154.389 76.4166 154.389 75.7222C154.389 75.3889 154.278 75.1389 154.056 74.9722C153.861 74.8611 153.472 74.6944 152.861 74.5277L152.195 74.3333C151.278 74.0833 150.639 73.7778 150.306 73.3611C150 73 149.861 72.5277 149.861 71.8888C149.861 71.1666 150.167 70.6111 150.722 70.1944C151.25 69.8055 151.972 69.6111 152.833 69.6111C154.5 69.6111 155.556 70.3055 156 71.6666Z" fill="white"/>
<path d="M166.833 74.1667H161.445C161.445 75 161.639 75.6389 162.028 76.0834C162.361 76.4723 162.833 76.6945 163.445 76.6945C164.306 76.6945 164.861 76.1945 165.111 75.1945L166.778 75.6667C166.278 77.1945 165.167 77.9722 163.417 77.9722C162.139 77.9722 161.195 77.5556 160.528 76.75C159.945 76.0278 159.667 75.0556 159.667 73.8611C159.667 72.4723 160.056 71.4167 160.806 70.6389C161.445 69.9722 162.278 69.6389 163.278 69.6389C164.389 69.6389 165.278 70.0556 165.945 70.8611C166.556 71.6111 166.833 72.5834 166.833 73.8056V74.1667ZM165.056 72.9722C164.972 71.5834 164.389 70.8889 163.306 70.8889C162.722 70.8889 162.278 71.1111 161.945 71.5278C161.667 71.8889 161.5 72.3611 161.472 72.9722H165.056Z" fill="white"/>
<path d="M183.417 69.8055L180.611 78.0555C180.278 79.0278 179.833 79.6944 179.278 80.0833C178.806 80.4167 178.195 80.5833 177.417 80.5833C177.083 80.5833 176.75 80.5555 176.417 80.5L176.333 79.1111C176.695 79.1667 177.028 79.2222 177.361 79.2222C178.083 79.2222 178.583 78.8055 178.861 78L178.972 77.6667L176.278 69.8611H178.195L179.139 73.1944C179.222 73.4722 179.445 74.3333 179.806 75.8056H179.945C180 75.5833 180.139 75.1111 180.306 74.4167C180.444 73.9167 180.556 73.5 180.639 73.1667L181.556 69.8611L183.417 69.8055Z" fill="white"/>
<path d="M190.195 69.6111C191.361 69.6111 192.278 70.0278 192.917 70.8611C193.5 71.6111 193.778 72.5555 193.778 73.75C193.778 75.1111 193.417 76.1944 192.667 76.9444C192.028 77.6111 191.195 77.9166 190.167 77.9166C189 77.9166 188.083 77.5 187.445 76.6666C186.861 75.9166 186.583 74.9722 186.583 73.7778C186.583 72.4166 186.945 71.3333 187.695 70.5833C188.361 69.9444 189.195 69.6111 190.195 69.6111ZM190.195 70.9444C189.028 70.9444 188.445 71.8889 188.445 73.7778C188.445 75.6944 189.028 76.6389 190.167 76.6389C191.333 76.6389 191.917 75.6944 191.917 73.7778C191.917 71.8889 191.361 70.9444 190.195 70.9444Z" fill="white"/>
<path d="M204.444 69.8056V77.7501H202.667V76.3889C202.361 76.9167 201.972 77.3056 201.472 77.5834C201.028 77.8334 200.583 77.9445 200.083 77.9445C199.361 77.9445 198.778 77.7223 198.361 77.2778C197.972 76.8612 197.778 76.3056 197.778 75.5834V69.7778H199.639V75.0556C199.639 75.9445 200 76.3612 200.75 76.3612C201.111 76.3612 201.472 76.2223 201.833 75.9167C202.139 75.6667 202.389 75.3612 202.583 75.0001V69.7778L204.444 69.8056Z" fill="white"/>
<path d="M213.139 69.6111L213.028 71.3333C212 71.3333 211.25 72 210.778 73.3611V77.75H208.972V69.8055H210.695V71.75C211.195 70.3333 212.028 69.6111 213.139 69.6111Z" fill="white"/>
<path d="M224.944 66.3056V70.9445C225.222 70.5001 225.556 70.1667 226 69.9167C226.361 69.7223 226.75 69.6112 227.139 69.6112C228.111 69.6112 228.861 70 229.389 70.7778C229.889 71.5 230.139 72.4723 230.139 73.7223C230.139 75.1112 229.778 76.2223 229.083 77C228.528 77.6389 227.833 77.9445 227.028 77.9445C226 77.9445 225.278 77.4723 224.806 76.5001L224.444 77.7223H223.139V66.2778H224.944V66.3056ZM224.944 72.4167V75.2223C225.333 76.1112 225.861 76.5556 226.556 76.5556C227.111 76.5556 227.528 76.3056 227.833 75.7778C228.139 75.3056 228.278 74.6112 228.278 73.75C228.278 72.8056 228.111 72.0834 227.75 71.6112C227.472 71.2223 227.111 71.0556 226.667 71.0556C225.917 71.0556 225.361 71.5278 224.944 72.4167Z" fill="white"/>
<path d="M240.806 69.8056V77.7501H239.028V76.3889C238.722 76.9167 238.333 77.3056 237.833 77.5834C237.389 77.8334 236.944 77.9445 236.444 77.9445C235.722 77.9445 235.139 77.7223 234.722 77.2778C234.333 76.8612 234.139 76.3056 234.139 75.5834V69.7778H236V75.0556C236 75.9445 236.361 76.3612 237.111 76.3612C237.472 76.3612 237.833 76.2223 238.194 75.9167C238.5 75.6667 238.75 75.3612 238.944 75.0001V69.7778L240.806 69.8056Z" fill="white"/>
<path d="M251.056 71.6666L249.333 72.1666C249.139 71.3055 248.667 70.8889 247.917 70.8889C247.5 70.8889 247.194 70.9722 246.972 71.1666C246.778 71.3333 246.667 71.5 246.667 71.75C246.667 72.0833 246.778 72.3333 247 72.5C247.194 72.6666 247.556 72.8055 248.083 72.9444L248.75 73.1111C249.722 73.3611 250.361 73.6944 250.722 74.0833C251.056 74.4444 251.194 74.9166 251.194 75.5277C251.194 76.3333 250.889 76.9444 250.278 77.3611C249.722 77.7777 248.944 77.9722 247.972 77.9722C246.25 77.9722 245.139 77.3055 244.639 76L246.333 75.4166C246.583 76.3055 247.139 76.75 248 76.75C248.972 76.75 249.444 76.4166 249.444 75.7222C249.444 75.3889 249.333 75.1389 249.111 74.9722C248.917 74.8611 248.528 74.6944 247.917 74.5277L247.25 74.3333C246.333 74.0833 245.694 73.7778 245.361 73.3611C245.056 73 244.917 72.5277 244.917 71.8888C244.917 71.1666 245.222 70.6111 245.778 70.1944C246.306 69.8055 247 69.6111 247.889 69.6111C249.556 69.6111 250.611 70.3055 251.056 71.6666Z" fill="white"/>
<path d="M257.111 66.5V68.3611H255.139V66.5H257.111ZM257.028 69.8055V77.75H255.194V69.8055H257.028Z" fill="white"/>
<path d="M263.306 69.8056V71.1945C263.667 70.6667 264.083 70.2778 264.556 70C265 69.75 265.444 69.6389 265.917 69.6389C266.639 69.6389 267.222 69.8611 267.611 70.3334C268 70.75 268.167 71.3056 268.167 72.0278V77.7778H266.306V72.5556C266.306 71.6667 265.944 71.2223 265.194 71.2223C264.861 71.2223 264.5 71.3611 264.139 71.6389C263.833 71.8889 263.556 72.1945 263.333 72.5834V77.8056H261.5V69.8611H263.306V69.8056Z" fill="white"/>
<path d="M279.361 74.1667H273.972C273.972 75 274.167 75.6389 274.556 76.0834C274.889 76.4723 275.361 76.6945 275.972 76.6945C276.833 76.6945 277.389 76.1945 277.639 75.1945L279.306 75.6667C278.806 77.1945 277.695 77.9722 275.945 77.9722C274.667 77.9722 273.722 77.5556 273.056 76.75C272.472 76.0278 272.195 75.0556 272.195 73.8611C272.195 72.4723 272.583 71.4167 273.333 70.6389C273.972 69.9722 274.806 69.6389 275.806 69.6389C276.917 69.6389 277.806 70.0556 278.472 70.8611C279.083 71.6111 279.361 72.5834 279.361 73.8056V74.1667ZM277.583 72.9722C277.5 71.5834 276.917 70.8889 275.833 70.8889C275.25 70.8889 274.806 71.1111 274.472 71.5278C274.195 71.8889 274.028 72.3611 274 72.9722H277.583Z" fill="white"/>
<path d="M289.111 71.6666L287.389 72.1666C287.195 71.3055 286.722 70.8889 285.972 70.8889C285.556 70.8889 285.25 70.9722 285.028 71.1666C284.833 71.3333 284.722 71.5 284.722 71.75C284.722 72.0833 284.833 72.3333 285.028 72.5C285.222 72.6666 285.583 72.8055 286.111 72.9444L286.778 73.1111C287.75 73.3611 288.417 73.6944 288.75 74.0833C289.083 74.4444 289.222 74.9166 289.222 75.5277C289.222 76.3333 288.917 76.9444 288.306 77.3611C287.75 77.7777 286.972 77.9722 286 77.9722C284.278 77.9722 283.167 77.3055 282.667 76L284.361 75.4166C284.611 76.3055 285.167 76.75 286.028 76.75C287 76.75 287.472 76.4166 287.472 75.7222C287.472 75.3889 287.361 75.1389 287.139 74.9722C286.945 74.8611 286.556 74.6944 285.945 74.5277L285.278 74.3333C284.361 74.0833 283.722 73.7778 283.389 73.3611C283.083 73 282.945 72.5277 282.945 71.8888C282.945 71.1666 283.25 70.6111 283.806 70.1944C284.333 69.8055 285.056 69.6111 285.917 69.6111C287.611 69.6111 288.667 70.3055 289.111 71.6666Z" fill="white"/>
<path d="M299.028 71.6666L297.306 72.1666C297.111 71.3055 296.639 70.8889 295.889 70.8889C295.472 70.8889 295.167 70.9722 294.945 71.1666C294.75 71.3333 294.639 71.5 294.639 71.75C294.639 72.0833 294.75 72.3333 294.972 72.5C295.167 72.6666 295.528 72.8055 296.056 72.9444L296.722 73.1111C297.695 73.3611 298.361 73.6944 298.695 74.0833C299.028 74.4444 299.167 74.9166 299.167 75.5277C299.167 76.3333 298.861 76.9444 298.25 77.3611C297.695 77.7777 296.917 77.9722 295.945 77.9722C294.222 77.9722 293.111 77.3055 292.611 76L294.306 75.4166C294.556 76.3055 295.111 76.75 295.972 76.75C296.945 76.75 297.417 76.4166 297.417 75.7222C297.417 75.3889 297.306 75.1389 297.084 74.9722C296.889 74.8611 296.5 74.6944 295.889 74.5277L295.222 74.3333C294.306 74.0833 293.667 73.7778 293.334 73.3611C293.028 73 292.889 72.5277 292.889 71.8888C292.889 71.1666 293.195 70.6111 293.75 70.1944C294.278 69.8055 295 69.6111 295.861 69.6111C297.528 69.6111 298.556 70.3055 299.028 71.6666Z" fill="white"/>
</g>
<defs>
<clipPath id="clip0_68_115">
<rect width="300" height="77.75" fill="white"/>
</clipPath>
</defs>
</svg>
